<svg width="48" height="48" viewBox="0 0 48 48" fill="none" xmlns="http://www.w3.org/2000/svg">
<mask id="mask0_7450_107882" style="mask-type:luminance" maskUnits="userSpaceOnUse" x="11" y="11" width="26" height="26">
<rect x="11" y="11" width="26" height="26" fill="white"/>
</mask>
<g mask="url(#mask0_7450_107882)">
<path d="M33.3549 21.7715L33.353 21.7725C33.4348 21.7725 33.5103 21.8173 33.5512 21.8877L36.8754 27.6426C36.9097 27.703 36.9096 27.7783 36.8754 27.8389L35.266 30.6279C35.23 30.6885 35.1655 30.7266 35.0951 30.7266H31.7631L28.3783 36.5879C28.3391 36.6534 28.2691 36.6943 28.1938 36.6943H24.9848C24.9145 36.6943 24.8483 36.6571 24.8139 36.5967L23.2094 33.8164C23.1718 33.751 23.1719 33.669 23.2094 33.6035L29.9789 21.8779C30.0182 21.8124 30.0882 21.7715 30.1635 21.7715H33.3549ZM16.1303 18.7861C16.2073 18.7861 16.2782 18.8271 16.3158 18.8926L23.0834 30.6162C23.121 30.6816 23.121 30.7636 23.0834 30.8291L21.4887 33.5938C21.4478 33.664 21.3722 33.708 21.2905 33.708H14.644C14.5736 33.708 14.5084 33.67 14.474 33.6094L12.8637 30.8213C12.8294 30.7609 12.8296 30.6855 12.8637 30.625L14.5356 27.7178L11.1469 21.876C11.1092 21.8105 11.1092 21.7286 11.1469 21.6631L12.7514 18.8838C12.7874 18.8235 12.8511 18.7862 12.9213 18.7861H16.1303ZM23.8959 11.3242C23.9661 11.3244 24.0315 11.3624 24.0658 11.4229L25.7328 14.3076H32.5014C32.5783 14.3076 32.6493 14.3486 32.6869 14.4141L34.2914 17.1943C34.3258 17.2549 34.3257 17.3301 34.2914 17.3906L32.6869 20.1709C32.6476 20.2364 32.5767 20.2773 32.5014 20.2773H18.9623C18.8854 20.2773 18.8144 20.2364 18.7768 20.1709L17.1821 17.4072C17.1411 17.3368 17.1411 17.2481 17.1821 17.1777L20.5063 11.4229C20.5423 11.3623 20.6058 11.3242 20.6762 11.3242H23.8959Z" fill="#2233FF"/>
</g>
</svg>
